<svg width="31" height="31" viewBox="0 0 31 31" fill="none" xmlns="http://www.w3.org/2000/svg">
<path d="M23.7234 12.2856V11.3941C23.7234 6.49893 19.9 2.53064 15.1837 2.53064C10.4673 2.53064 6.64396 6.49893 6.64396 11.3941V12.2856C6.64396 13.3555 6.33883 14.4015 5.76701 15.2918L4.36576 17.4733C3.08586 19.4659 4.06296 22.1744 6.28903 22.8045C12.1125 24.4529 18.2549 24.4529 24.0783 22.8045C26.3044 22.1744 27.2815 19.4659 26.0016 17.4733L24.6003 15.2918C24.0285 14.4015 23.7234 13.3555 23.7234 12.2856Z" stroke="#FCF7F4" stroke-width="1.5"/>
<path opacity="0.5" d="M9.48979 24.0409C10.3186 26.2524 12.5549 27.8368 15.1837 27.8368C17.8124 27.8368 20.0487 26.2524 20.8775 24.0409" stroke="#FCF7F4" stroke-width="1.5" stroke-linecap="round"/>
</svg>
