<svg width="30" height="30" viewBox="0 0 30 30" fill="none" xmlns="http://www.w3.org/2000/svg">
<g clip-path="url(#clip0_5490_13061)">
<path d="M14 21V5.83331" stroke="#401903" stroke-width="2" stroke-linecap="round" stroke-linejoin="round"/>
<path d="M17.5 15.1667C16.4906 14.8716 15.604 14.2574 14.973 13.4161C14.342 12.5748 14.0006 11.5516 14 10.5C13.9994 11.5516 13.658 12.5748 13.027 13.4161C12.396 14.2574 11.5094 14.8716 10.5 15.1667" stroke="#401903" stroke-width="2" stroke-linecap="round" stroke-linejoin="round"/>
<path d="M20.531 7.58334C20.7995 7.11841 20.9574 6.59796 20.9925 6.06224C21.0276 5.52652 20.9391 4.9899 20.7336 4.49389C20.5282 3.99788 20.2114 3.55578 19.8077 3.20179C19.4041 2.8478 18.9245 2.59141 18.4059 2.45245C17.8873 2.3135 17.3437 2.29571 16.8172 2.40045C16.2906 2.50519 15.7952 2.72966 15.3693 3.0565C14.9434 3.38333 14.5983 3.80377 14.3609 4.28528C14.1235 4.76679 14 5.29647 14 5.83334C14 5.29647 13.8765 4.76679 13.6391 4.28528C13.4017 3.80377 13.0566 3.38333 12.6307 3.0565C12.2048 2.72966 11.7094 2.50519 11.1828 2.40045C10.6563 2.29571 10.1127 2.3135 9.59412 2.45245C9.07554 2.59141 8.59589 2.8478 8.19225 3.20179C7.78861 3.55578 7.47182 3.99788 7.26639 4.49389C7.06095 4.9899 6.97237 5.52652 7.0075 6.06224C7.04264 6.59796 7.20054 7.11841 7.469 7.58334" stroke="#401903" stroke-width="2" stroke-linecap="round" stroke-linejoin="round"/>
<path d="M20.9966 5.97919C21.6823 6.15551 22.319 6.48558 22.8583 6.94438C23.3976 7.40319 23.8255 7.97871 24.1094 8.62734C24.3934 9.27598 24.526 9.98073 24.4973 10.6882C24.4686 11.3957 24.2792 12.0874 23.9436 12.7109" stroke="#401903" stroke-width="2" stroke-linecap="round" stroke-linejoin="round"/>
<path d="M21 21C22.0273 20.9999 23.0258 20.661 23.8408 20.0356C24.6557 19.4102 25.2416 18.5334 25.5074 17.5412C25.7733 16.5489 25.7044 15.4967 25.3113 14.5476C24.9182 13.5985 24.2229 12.8057 23.3333 12.292" stroke="#401903" stroke-width="2" stroke-linecap="round" stroke-linejoin="round"/>
<path d="M23.2947 20.3969C23.3764 21.0295 23.3276 21.6721 23.1513 22.2851C22.975 22.8981 22.6748 23.4685 22.2694 23.961C21.864 24.4534 21.362 24.8576 20.7942 25.1484C20.2265 25.4392 19.6052 25.6106 18.9687 25.6519C18.3322 25.6932 17.6939 25.6036 17.0934 25.3886C16.4928 25.1735 15.9428 24.8377 15.4771 24.4017C15.0115 23.9658 14.6401 23.439 14.386 22.8539C14.132 22.2688 14.0005 21.6379 13.9998 21C13.9992 21.6379 13.8677 22.2688 13.6136 22.8539C13.3595 23.439 12.9882 23.9658 12.5226 24.4017C12.0569 24.8377 11.5068 25.1735 10.9063 25.3886C10.3057 25.6036 9.66751 25.6932 9.03097 25.6519C8.39444 25.6106 7.77313 25.4392 7.20542 25.1484C6.63771 24.8576 6.13565 24.4534 5.73025 23.961C5.32485 23.4685 5.02471 22.8981 4.84837 22.2851C4.67203 21.6721 4.62324 21.0295 4.705 20.3969" stroke="#401903" stroke-width="2" stroke-linecap="round" stroke-linejoin="round"/>
<path d="M6.99996 21C5.9727 20.9999 4.97417 20.661 4.1592 20.0356C3.34424 19.4102 2.75839 18.5334 2.49251 17.5412C2.22664 16.5489 2.29559 15.4967 2.68868 14.5476C3.08177 13.5985 3.77702 12.8057 4.66663 12.292" stroke="#401903" stroke-width="2" stroke-linecap="round" stroke-linejoin="round"/>
<path d="M7.00358 5.97919C6.31782 6.15551 5.68117 6.48558 5.14185 6.94438C4.60253 7.40319 4.17469 7.97871 3.89073 8.62734C3.60677 9.27598 3.47413 9.98073 3.50287 10.6882C3.5316 11.3957 3.72095 12.0874 4.05658 12.7109" stroke="#401903" stroke-width="2" stroke-linecap="round" stroke-linejoin="round"/>
</g>
<defs>
<clipPath id="clip0_5490_13061">
<rect width="30" height="30" fill="white"/>
</clipPath>
</defs>
</svg>
