<svg width="118" height="118" viewBox="0 0 118 118" fill="none" xmlns="http://www.w3.org/2000/svg">
<g clip-path="url(#clip0_7382_25694)">
<circle cx="59" cy="59" r="51.625" fill="#DC2626"/>
<path d="M42.0363 80.0473C40.3253 78.7198 40.1041 77.1858 41.3726 75.4453L54.7361 57.3028L43.2311 42.3463C41.8446 40.6648 42.0363 39.1603 43.8063 37.8328C45.4878 36.4758 46.9923 36.6528 48.3198 38.3638L59.2938 52.6123L70.3563 38.3638C71.6543 36.5938 73.1736 36.402 74.9141 37.7885C76.6251 39.0865 76.8316 40.6058 75.5336 42.3463L63.3648 57.9223L76.8611 75.401C78.1296 77.1415 77.9526 78.6608 76.3301 79.9588C74.5601 81.3453 73.0261 81.1535 71.7281 79.3835L58.8513 62.7013L46.5941 79.295C45.2666 81.0945 43.7473 81.3453 42.0363 80.0473Z" fill="white"/>
</g>
<defs>
<clipPath id="clip0_7382_25694">
<rect width="118" height="118" fill="white"/>
</clipPath>
</defs>
</svg>
