<svg width="11" height="11" viewBox="0 0 11 11" fill="none" xmlns="http://www.w3.org/2000/svg">
<path d="M6.28685 1.19273C6.65945 0.789041 6.84574 0.587198 7.04371 0.469463C7.52137 0.185379 8.10954 0.176545 8.59518 0.446161C8.79644 0.5579 8.98847 0.75406 9.37252 1.14638C9.75657 1.5387 9.94859 1.73486 10.058 1.94046C10.3219 2.43656 10.3133 3.0374 10.0352 3.52535C9.91991 3.72758 9.72232 3.91789 9.32715 4.2985L4.62531 8.82715C3.87644 9.54844 3.502 9.90908 3.03403 10.0919C2.56606 10.2746 2.0516 10.2612 1.02268 10.2343L0.882689 10.2306C0.569453 10.2224 0.412835 10.2183 0.321793 10.115C0.230751 10.0117 0.243181 9.85216 0.26804 9.53309L0.281538 9.35983C0.351504 8.46177 0.386487 8.01274 0.561854 7.60911C0.73722 7.20547 1.03972 6.87773 1.64471 6.22225L6.28685 1.19273Z" stroke="white" stroke-width="0.5" stroke-linejoin="round"/>
<path d="M5.75 1.25L9.25 4.75" stroke="white" stroke-width="0.5" stroke-linejoin="round"/>
<path d="M6.25 10.25L10.25 10.25" stroke="white" stroke-width="0.5" stroke-linecap="round" stroke-linejoin="round"/>
</svg>
