<svg width="16" height="16" viewBox="0 0 16 16" fill="none" xmlns="http://www.w3.org/2000/svg">
<g clip-path="url(#clip0_5490_13155)">
<g clip-path="url(#clip1_5490_13155)">
<path d="M8.00016 14.6667C11.6821 14.6667 14.6668 11.6819 14.6668 8.00004C14.6668 4.31814 11.6821 1.33337 8.00016 1.33337C4.31826 1.33337 1.3335 4.31814 1.3335 8.00004C1.3335 11.6819 4.31826 14.6667 8.00016 14.6667Z" stroke="white" stroke-width="2" stroke-linecap="round" stroke-linejoin="round"/>
<path d="M8.00016 1.33337C6.28832 3.13081 5.3335 5.51787 5.3335 8.00004C5.3335 10.4822 6.28832 12.8693 8.00016 14.6667C9.71201 12.8693 10.6668 10.4822 10.6668 8.00004C10.6668 5.51787 9.71201 3.13081 8.00016 1.33337Z" stroke="white" stroke-width="2" stroke-linecap="round" stroke-linejoin="round"/>
<path d="M1.3335 8H14.6668" stroke="white" stroke-width="2" stroke-linecap="round" stroke-linejoin="round"/>
</g>
</g>
<defs>
<clipPath id="clip0_5490_13155">
<rect width="16" height="16" fill="white"/>
</clipPath>
<clipPath id="clip1_5490_13155">
<rect width="16" height="16" fill="white"/>
</clipPath>
</defs>
</svg>
