<svg width="31" height="31" viewBox="0 0 31 31" fill="none" xmlns="http://www.w3.org/2000/svg">
<path d="M2.53064 12.6531C2.53064 7.88132 2.53064 5.49544 4.01304 4.01304C5.49544 2.53064 7.88132 2.53064 12.6531 2.53064H17.7143C22.4861 2.53064 24.872 2.53064 26.3544 4.01304C27.8368 5.49544 27.8368 7.88132 27.8368 12.6531V13.9184C27.8368 17.4972 27.8368 19.2866 26.725 20.3984C25.6132 21.5102 23.8238 21.5102 20.2449 21.5102H10.1225C6.54365 21.5102 4.75424 21.5102 3.64244 20.3984C2.53064 19.2866 2.53064 17.4972 2.53064 13.9184V12.6531Z" stroke="#FCF7F4" stroke-width="1.89796"/>
<path d="M20.2449 27.8368H10.1224" stroke="#FCF7F4" stroke-width="1.89796" stroke-linecap="round"/>
<path d="M15.1837 21.5103L15.1837 27.8368" stroke="#FCF7F4" stroke-width="1.89796" stroke-linecap="round"/>
<path d="M27.8368 16.449H2.53064" stroke="#FCF7F4" stroke-width="1.89796" stroke-linecap="round"/>
</svg>
