<svg width="31" height="31" viewBox="0 0 31 31" fill="none" xmlns="http://www.w3.org/2000/svg">
<path fill-rule="evenodd" clip-rule="evenodd" d="M15.1837 10.1664C11.7709 10.1664 9.0043 12.8889 9.0043 16.2472C9.0043 17.9267 9.69499 19.4457 10.8142 20.5471C11.1589 20.8863 11.1589 21.4364 10.8142 21.7756C10.4695 22.1148 9.91052 22.1148 9.56578 21.7756C8.12899 20.3617 7.23876 18.406 7.23876 16.2472C7.23876 11.9293 10.7958 8.42896 15.1837 8.42896C19.5716 8.42896 23.1286 11.9293 23.1286 16.2472C23.1286 18.406 22.2384 20.3617 20.8016 21.7756C20.4569 22.1148 19.8979 22.1148 19.5532 21.7756C19.2085 21.4364 19.2085 20.8863 19.5532 20.5471C20.6724 19.4457 21.3631 17.9267 21.3631 16.2472C21.3631 12.8889 18.5965 10.1664 15.1837 10.1664Z" fill="#FCF7F4"/>
<path fill-rule="evenodd" clip-rule="evenodd" d="M15.1837 5.53329C9.17069 5.53329 4.29618 10.3301 4.29618 16.2472C4.29618 19.2061 5.51384 21.8833 7.48506 23.8231C7.82981 24.1624 7.82981 24.7124 7.48506 25.0517C7.14032 25.3909 6.58138 25.3909 6.23664 25.0517C3.94785 22.7994 2.53064 19.6853 2.53064 16.2472C2.53064 9.37055 8.19561 3.7959 15.1837 3.7959C22.1718 3.7959 27.8368 9.37055 27.8368 16.2472C27.8368 19.6853 26.4196 22.7994 24.1308 25.0517C23.786 25.3909 23.2271 25.3909 22.8823 25.0517C22.5376 24.7124 22.5376 24.1624 22.8823 23.8231C24.8536 21.8833 26.0712 19.2061 26.0712 16.2472C26.0712 10.3301 21.1967 5.53329 15.1837 5.53329Z" fill="#FCF7F4"/>
<path d="M13.0452 21.9456C14.0163 20.8374 14.5019 20.2834 15.1014 20.2473C15.1562 20.2441 15.2112 20.2441 15.266 20.2473C15.8655 20.2834 16.3511 20.8374 17.3222 21.9456C19.4353 24.3567 20.4918 25.5623 20.196 26.6024C20.1706 26.6918 20.139 26.7788 20.1016 26.8626C19.6662 27.8367 18.172 27.8367 15.1837 27.8367C12.1954 27.8367 10.7012 27.8367 10.2658 26.8626C10.2284 26.7788 10.1968 26.6918 10.1714 26.6024C9.87561 25.5623 10.9321 24.3567 13.0452 21.9456Z" fill="#FCF7F4"/>
<path d="M18.347 15.8163C18.347 17.5633 16.9307 18.9796 15.1837 18.9796C13.4367 18.9796 12.0204 17.5633 12.0204 15.8163C12.0204 14.0693 13.4367 12.653 15.1837 12.653C16.9307 12.653 18.347 14.0693 18.347 15.8163Z" fill="#FCF7F4"/>
</svg>
